<svg id="Layer_1" data-name="Layer 1" xmlns="http://www.w3.org/2000/svg" viewBox="0 0 600 600"><title>Icon@1x</title><rect width="600" height="600" rx="45.07" ry="45.07" style="fill:#f2f2f2"/><path d="M543.25,399a7.73,7.73,0,0,0-8.26,7.46,1067.71,1067.71,0,0,0,3.51,124.3h0A1063.67,1063.67,0,0,1,543.42,399Z"/><path d="M512.43,416.05q-.61,57.38,3,114.56h0q.26-61.24,5.29-122.18h-.16A7.73,7.73,0,0,0,512.43,416.05Z"/><path d="M489.66,439.12q2.42,44.42,3.27,89,3.16-48.47,4.45-97.12h-.13A7.73,7.73,0,0,0,489.66,439.12Z"/><path d="M466.57,463.19l5.11,64.89,2.42-73.22A7.73,7.73,0,0,0,466.57,463.19Z"/><path d="M54.55,399h-.17a1063.64,1063.64,0,0,1,5,129.28h.17a1067.77,1067.77,0,0,0,3.3-121.83A7.73,7.73,0,0,0,54.55,399Z"/><path d="M77.25,408.43h-.16Q82,468.2,82.37,528.38h.17q3.42-56,2.83-112.33A7.73,7.73,0,0,0,77.25,408.43Z"/><path d="M100.55,431h-.13q1.29,48.64,4.45,97.12.85-44.54,3.27-89A7.73,7.73,0,0,0,100.55,431Z"/><path d="M123.7,454.85l2.42,73.22,5.11-64.89A7.73,7.73,0,0,0,123.7,454.85Z"/><path d="M540.78,325.55c-13.58-6.08-24.89-15.11-34.92-26-13.7-14.86-25.69-31.48-43.12-42.59-.21-.11-.78-.51-1.55-1.06-2.37-1.63-6.79-4.7-9.35-6.14l-.42-.19,0-.06c-.78-.41-1.33-.61-1.47-.48l0,0c-.47.61.16,1.21.69,1.65h0c2.22,3.45,4.43,6.9,6.66,10.34,5.75,8.82,9.92,18.19,9.94,29,0,.69.35,1.47-.39,2.3a2.86,2.86,0,0,1-.4.38,92.39,92.39,0,0,0-2.35-9.35c-5.82-16-14-30.58-30.55-37.42-15.82-6.55-25-18.95-32.89-33-4-3.58-6.87-8.23-11.36-11.34a91.33,91.33,0,0,1-16.65-15.1c-1.88-2.15-13.77-19.93-15.4-22.3h0a9.3,9.3,0,0,1-.85,1.05c-1.56,1.19-1.36,1.37-.33,2,3.6,2.24,5.1,6.26,7.82,9.08,3.19,3.3,2.81,7.36,4.34,10.94,1.66,3.88,3.09,7.87,4.55,11.84,1.26,3.42,2.33,6.73,1.52,10.65-1.2,5.73,1.93,9.89,7.15,14.09-1.19-6.07-5.41-10-5.72-15.22h0v0c1.49,0,1.69,1.15,2.14,1.94,5.2,9.11,12.12,16.71,20,23.55,10,8.67,15.26,19.58,14.24,33-.63,8.31,1.63,16,4.26,23.69h0l5.32,9.34-.05,0,0,.07a25.2,25.2,0,0,1-6.68-8c-5.18-5.93-7.44-13.32-9.87-20.53-6.24-18.52-16.21-34.58-30.72-47.69a33,33,0,0,1-11.13-21.57,72,72,0,0,0-5-20.59,44.28,44.28,0,0,0-9.49-13.46c-1.95-2-4.16-3.07-6.87-1.79-4.25,2-6.57,0-8.36-3.67a69.13,69.13,0,0,1-6.17-19.38,132.07,132.07,0,0,0-9.46-32.84l0,.05h0l-1.64-2.63c-.88-.9-1.77-1.79-2.62-2.71-6.11-6.59-12.78-7.23-20-1.8a36.89,36.89,0,0,0-9.14,9.45,74.76,74.76,0,0,1-12.9,14.64,90.55,90.55,0,0,0-20.26,26.59q-1.49,3-3,6a1.37,1.37,0,0,1,.42-.14L247.59,162a97.32,97.32,0,0,0-7,24.2,50.94,50.94,0,0,1-4.55,14.28c-1.32,2.68-3,4.18-6.16,2.7-2-.94-3.63-.14-5.06,1.32a32.63,32.63,0,0,0-7,9.92,53.05,53.05,0,0,0-3.67,15.17,24.32,24.32,0,0,1-8.2,15.89,81.32,81.32,0,0,0-22.64,35.14c-1.79,5.31-3.46,10.75-7.27,15.12h0a18.57,18.57,0,0,1-4.93,5.86l3.92-6.88h0c1.94-5.66,3.61-11.34,3.14-17.46-.75-9.91,3.11-17.95,10.49-24.34a67.11,67.11,0,0,0,14.75-17.36c.33-.58.48-1.41,1.58-1.43-.23,3.89-3.36,6.76-4.23,11.25,3.86-3.1,6.17-6.17,5.29-10.4-.6-2.89.19-5.32,1.12-7.85,1.07-2.92,2.13-5.86,3.35-8.72,1.13-2.64.85-5.63,3.2-8.06,2-2.07,3.11-5,5.76-6.69.76-.48.91-.61-.24-1.49a5.81,5.81,0,0,1-1-1.38c-7.33,3.44-13,8.77-18.07,14.93q-8.54,10.41-17.56,20.32L183,236c-4.31,11.06-9.69,21.06-20.54,27.49-11.35,6.72-15.81,18.19-18.37,30.49a68.12,68.12,0,0,0-.74,7.07c-1-.58-.76-1.29-.85-1.86-1.11-7.87,1-15.13,4.22-22.17,1.27-2.74,2.52-5.49,3.78-8.24.3-.33.63-.75.45-1.12-.61.55-1.21,1.1-1.82,1.64l1-1.53c-2,1.3-7.37,6.5-7.85,6.83,0-.92,1.54-3.42,2-4.27.23-.39.48-.76.74-1.13-1.67,1.18-3.1,2.26-3.43,2.42-7.86,4-13.53,11.58-19.5,17.71-16.54,17-41.31,27.66-62,38.59a27.89,27.89,0,0,0-2.43,1.61H545.94C544.58,326.76,542.48,326.31,540.78,325.55Z"/><path d="M579.12,349c-.15-3.06-.3-6.08-.58-9.19a88.07,88.07,0,0,0-1.26-9.43,46.88,46.88,0,0,0-2.88-9.53,32,32,0,0,0-5.63-8.82,34.8,34.8,0,0,0-3.87-3.58,47.94,47.94,0,0,0-4.15-2.88c-2.8-1.73-5.6-3.15-8.24-4.54a69.3,69.3,0,0,1-7.34-4.31,58.3,58.3,0,0,1-6.5-5.23c-8.27-7.66-14.86-17.51-22-27.42A167.53,167.53,0,0,0,505,249.33a130.39,130.39,0,0,0-13.86-13c-9.74-8-20.12-14.66-30.19-21.26q-3.78-2.48-7.48-5L446.15,205c-2.44-1.69-4.79-3.52-7.19-5.27s-4.72-3.61-7.06-5.44q-14-11-27-23.24a395.65,395.65,0,0,1-47-53.42c-3.45-4.83-6.88-9.67-10.13-14.63-.82-1.24-1.66-2.46-2.46-3.71L343,95.47l-4.83-7.73A79.45,79.45,0,0,0,325.69,72a36.42,36.42,0,0,0-9.41-6.49A26.67,26.67,0,0,0,303.93,63,26.33,26.33,0,0,0,297.64,64a31.86,31.86,0,0,0-5.54,2.24,52.54,52.54,0,0,0-8.8,5.89,134.88,134.88,0,0,0-14.06,13.15c-8.64,9.31-16,19.28-23.18,29Q224.69,143.52,202,171.58q-11.35,14.05-23,27.83c-7.78,9.2-15.61,18.27-23.79,26.93a293.06,293.06,0,0,1-25.73,24.43,268,268,0,0,1-29,20.53c-10.13,6.34-20.63,12.26-31.1,18.39-5.24,3.08-10.45,6.15-15.69,9.41A82.5,82.5,0,0,0,38.4,310.76a45.65,45.65,0,0,0-6.23,7.84,50.42,50.42,0,0,0-4.38,8.86A82.46,82.46,0,0,0,23.38,346c-.8,6.19-1.21,12.22-1.65,18.32-.25,3-.37,6.09-.54,9.13s-.27,6.08-.39,9.11c-.44,12.14-.64,24.27-.7,36.39s.11,24.24.33,36.36.57,24.22,1.12,36.33,1.19,24.2,2.24,36.26c-.71-24.2-.37-48.4.09-72.58q.42-18.14,1.17-36.25c.48-12.07,1.1-24.14,2-36.17.22-3,.42-6,.7-9s.5-6,.84-9,.62-6,1-8.94.82-5.91,1.34-8.81a75.52,75.52,0,0,1,4.58-16.58,41.92,41.92,0,0,1,3.92-7.25,36.76,36.76,0,0,1,5.27-6.15,73.68,73.68,0,0,1,13.93-9.8c5.15-2.94,10.48-5.83,15.78-8.68C85,293,95.74,287.21,106.31,281a279.68,279.68,0,0,0,30.8-20.64,281.33,281.33,0,0,0,27.51-24.87c8.62-8.78,16.78-17.89,24.8-27s15.89-18.41,23.66-27.77c15.56-18.69,30.56-37.87,45.11-57.35,7.26-9.68,14.3-19.21,22.19-27.62a119.69,119.69,0,0,1,12.45-11.6,37.78,37.78,0,0,1,6.25-4.21,16.6,16.6,0,0,1,2.86-1.16,11,11,0,0,1,2.64-.44,11.24,11.24,0,0,1,5.26,1.11,21.27,21.27,0,0,1,5.45,3.8,65.13,65.13,0,0,1,10,12.69l4.81,7.66,2.47,3.91c.83,1.3,1.71,2.57,2.56,3.85,3.38,5.16,7,10.17,10.62,15.16a395.1,395.1,0,0,0,49.34,55q13.63,12.49,28.35,23.7c2.46,1.85,4.9,3.73,7.43,5.49s5,3.61,7.55,5.32l7.67,5.14q3.87,2.51,7.73,4.94c10.26,6.5,20.48,12.64,29.67,19.79a118.46,118.46,0,0,1,12.89,11.46,156.43,156.43,0,0,1,11.23,13.43c3.63,4.74,7.24,9.67,11.17,14.51a104.11,104.11,0,0,0,13.11,13.83,68.32,68.32,0,0,0,7.87,5.84,78.94,78.94,0,0,0,8.48,4.57c5.52,2.63,10.62,5,14.09,8.55s5.68,8.52,7,14a123,123,0,0,1,2.35,17.42c1,11.94,1.61,24,2,36.07s.73,24.15.93,36.25.43,24.19.57,36.29c.3,24.2.47,48.42,1.09,72.63.72-24.2,1.71-48.39,2.39-72.59.36-12.1.7-24.21.94-36.32s.34-24.23.34-36.36S579.74,361.18,579.12,349Z"/><path d="M54.73,360.28c40.38-.85,80.76-1.24,121.14-1.57L297,358.23l121.14.47,60.57.57,60.57,1-60.57,1-60.57.57L297,362.33l-121.14-.48C135.5,361.52,95.11,361.13,54.73,360.28Z"/><path d="M96.31,387.64c33.08-.85,66.16-1.24,99.24-1.57l99.24-.48,99.24.47,49.62.57,49.62,1-49.62,1-49.62.57-99.24.47-99.24-.48C162.47,388.88,129.39,388.49,96.31,387.64Z"/><path d="M127.15,423.21c28.57-.85,57.14-1.24,85.71-1.57l85.71-.48,85.71.47,42.86.57c14.29.34,28.57.54,42.86,1-14.29.47-28.57.67-42.86,1l-42.86.57-85.71.47-85.71-.48C184.29,424.45,155.72,424.05,127.15,423.21Z"/><path d="M148.8,454.85c23.68-.85,47.36-1.24,71-1.57s47.36-.31,71-.48c23.68.16,47.36.14,71,.47l35.52.57c11.84.34,23.68.54,35.52,1-11.84.47-23.68.66-35.52,1l-35.52.57c-23.68.33-47.36.31-71,.47-23.68-.17-47.36-.14-71-.48S172.48,455.7,148.8,454.85Z"/><path d="M224.83,508.65v5.88h-29v-5.88Z"/><path d="M329.75,505c0,21-16.54,32.08-36.73,32.08-20.89,0-35.56-12.47-35.56-30.9,0-19.34,15.61-32,36.73-32C315.79,474.14,329.75,486.88,329.75,505Zm-61.37,1c0,13,9.15,24.67,25.23,24.67S319,519.14,319,505.31c0-12.11-8.21-24.76-25.23-24.76S268.38,492.57,268.38,505.95Z"/><path d="M391.5,508.65v5.88h-29v-5.88Z"/></svg>